<svg width="60" height="38" viewBox="0 0 60 38" fill="none" xmlns="http://www.w3.org/2000/svg">
<path opacity="0.8" d="M26.9513 16.2434V21.6809C26.9513 24.4101 26.6388 26.7851 26.0138 28.8059C25.4096 30.8059 24.5346 32.4726 23.3888 33.8059C22.2638 35.1184 20.8888 36.0976 19.2638 36.7434C17.6596 37.3892 15.8575 37.7122 13.8575 37.7122C11.8784 37.7122 10.0763 37.3892 8.45129 36.7434C6.84713 36.0976 5.46171 35.1184 4.29504 33.8059C3.14921 32.4726 2.26379 30.8059 1.63879 28.8059C1.01379 26.7851 0.701294 24.4101 0.701294 21.6809V16.2434C0.701294 13.5142 1.00338 11.1497 1.60754 9.14966C2.23254 7.14966 3.11796 5.49341 4.26379 4.18091C5.43046 2.86841 6.81588 1.89966 8.42004 1.27466C10.0242 0.628825 11.8159 0.305908 13.795 0.305908C15.795 0.305908 17.6075 0.628825 19.2325 1.27466C20.8575 1.89966 22.243 2.86841 23.3888 4.18091C24.5346 5.49341 25.4096 7.14966 26.0138 9.14966C26.6388 11.1497 26.9513 13.5142 26.9513 16.2434ZM21.1388 22.4934V15.3684C21.1388 13.6392 20.9825 12.1288 20.67 10.8372C20.3575 9.54549 19.8888 8.47257 19.2638 7.61841C18.6596 6.76424 17.8992 6.12882 16.9825 5.71216C16.0659 5.27466 15.0034 5.05591 13.795 5.05591C12.6284 5.05591 11.5867 5.27466 10.67 5.71216C9.77421 6.12882 9.01379 6.76424 8.38879 7.61841C7.78463 8.47257 7.31588 9.54549 6.98254 10.8372C6.67004 12.1288 6.51379 13.6392 6.51379 15.3684V22.4934C6.51379 24.2226 6.67004 25.7434 6.98254 27.0559C7.31588 28.3684 7.79504 29.4622 8.42004 30.3372C9.04504 31.2122 9.81588 31.8788 10.7325 32.3372C11.6492 32.7747 12.6909 32.9934 13.8575 32.9934C15.0659 32.9934 16.118 32.7747 17.0138 32.3372C17.9305 31.8788 18.6909 31.2122 19.295 30.3372C19.92 29.4622 20.3784 28.3684 20.67 27.0559C20.9825 25.7434 21.1388 24.2226 21.1388 22.4934ZM41.1075 16.3372H44.9513C46.6805 16.3372 48.1075 16.0976 49.2325 15.6184C50.3784 15.1184 51.2325 14.4413 51.795 13.5872C52.3575 12.733 52.6388 11.7538 52.6388 10.6497C52.6388 9.50382 52.3888 8.51424 51.8888 7.68091C51.3888 6.84757 50.6284 6.20174 49.6075 5.74341C48.6075 5.28507 47.3367 5.05591 45.795 5.05591C44.42 5.05591 43.2013 5.27466 42.1388 5.71216C41.0971 6.12882 40.2742 6.73299 39.67 7.52466C39.0659 8.29549 38.7638 9.21216 38.7638 10.2747H32.9513C32.9513 8.33716 33.493 6.61841 34.5763 5.11841C35.6805 3.61841 37.1909 2.44132 39.1075 1.58716C41.045 0.732992 43.2638 0.305908 45.7638 0.305908C47.6596 0.305908 49.3784 0.524658 50.92 0.962158C52.4825 1.39966 53.8263 2.05591 54.9513 2.93091C56.0763 3.80591 56.9409 4.88924 57.545 6.18091C58.1492 7.45174 58.4513 8.93091 58.4513 10.6184C58.4513 11.6809 58.2117 12.7434 57.7325 13.8059C57.2534 14.8684 56.5034 15.8372 55.4825 16.7122C54.4825 17.5872 53.1909 18.2955 51.6075 18.8372C50.045 19.358 48.1805 19.6184 46.0138 19.6184H41.1075V16.3372ZM41.1075 20.9934V17.7122H46.0138C48.5346 17.7122 50.6388 17.9622 52.3263 18.4622C54.0138 18.9622 55.3471 19.6497 56.3263 20.5247C57.3263 21.3788 58.0346 22.3684 58.4513 23.4934C58.8888 24.6184 59.1075 25.8059 59.1075 27.0559C59.1075 28.7434 58.7742 30.2538 58.1075 31.5872C57.4409 32.8997 56.5034 34.0142 55.295 34.9309C54.0867 35.8476 52.67 36.5455 51.045 37.0247C49.4409 37.483 47.6909 37.7122 45.795 37.7122C44.0242 37.7122 42.3471 37.5038 40.7638 37.0872C39.1805 36.6497 37.7742 36.0038 36.545 35.1497C35.3159 34.2747 34.3471 33.1913 33.6388 31.8997C32.9305 30.608 32.5763 29.108 32.5763 27.3997H38.3575C38.3575 28.5038 38.6596 29.483 39.2638 30.3372C39.8888 31.1705 40.7534 31.8267 41.8575 32.3059C42.9825 32.7642 44.295 32.9934 45.795 32.9934C47.3575 32.9934 48.6909 32.7642 49.795 32.3059C50.92 31.8267 51.7742 31.1497 52.3575 30.2747C52.9617 29.3997 53.2638 28.3372 53.2638 27.0872C53.2638 26.0247 53.0659 25.108 52.67 24.3372C52.295 23.5663 51.743 22.9413 51.0138 22.4622C50.2846 21.9622 49.4096 21.5976 48.3888 21.3684C47.368 21.1184 46.2221 20.9934 44.9513 20.9934H41.1075Z" fill="#333333"/>
</svg>
