<svg width="61" height="38" viewBox="0 0 61 38" fill="none" xmlns="http://www.w3.org/2000/svg">
<path opacity="0.8" d="M26.7512 16.5266V21.9641C26.7512 24.6933 26.4387 27.0683 25.8137 29.0891C25.2096 31.0891 24.3346 32.7558 23.1887 34.0891C22.0637 35.4016 20.6887 36.3808 19.0637 37.0266C17.4596 37.6724 15.6575 37.9954 13.6575 37.9954C11.6783 37.9954 9.87622 37.6724 8.25122 37.0266C6.64705 36.3808 5.26164 35.4016 4.09497 34.0891C2.94914 32.7558 2.06372 31.0891 1.43872 29.0891C0.813721 27.0683 0.501221 24.6933 0.501221 21.9641V16.5266C0.501221 13.7974 0.803304 11.4329 1.40747 9.43286C2.03247 7.43286 2.91789 5.77661 4.06372 4.46411C5.23039 3.15161 6.6158 2.18286 8.21997 1.55786C9.82414 0.912028 11.6158 0.589111 13.595 0.589111C15.595 0.589111 17.4075 0.912028 19.0325 1.55786C20.6575 2.18286 22.0429 3.15161 23.1887 4.46411C24.3346 5.77661 25.2096 7.43286 25.8137 9.43286C26.4387 11.4329 26.7512 13.7974 26.7512 16.5266ZM20.9387 22.7766V15.6516C20.9387 13.9224 20.7825 12.412 20.47 11.1204C20.1575 9.82869 19.6887 8.75578 19.0637 7.90161C18.4596 7.04744 17.6991 6.41203 16.7825 5.99536C15.8658 5.55786 14.8033 5.33911 13.595 5.33911C12.4283 5.33911 11.3866 5.55786 10.47 5.99536C9.57414 6.41203 8.81372 7.04744 8.18872 7.90161C7.58455 8.75578 7.1158 9.82869 6.78247 11.1204C6.46997 12.412 6.31372 13.9224 6.31372 15.6516V22.7766C6.31372 24.5058 6.46997 26.0266 6.78247 27.3391C7.1158 28.6516 7.59497 29.7454 8.21997 30.6204C8.84497 31.4954 9.6158 32.162 10.5325 32.6204C11.4491 33.0579 12.4908 33.2766 13.6575 33.2766C14.8658 33.2766 15.9179 33.0579 16.8137 32.6204C17.7304 32.162 18.4908 31.4954 19.095 30.6204C19.72 29.7454 20.1783 28.6516 20.47 27.3391C20.7825 26.0266 20.9387 24.5058 20.9387 22.7766ZM60.2512 32.7454V37.4954H33.1887V33.4016L46.5637 20.4954C48.1471 19.037 49.3762 17.7662 50.2512 16.6829C51.1471 15.5995 51.7721 14.6204 52.1262 13.7454C52.5012 12.8704 52.6887 12.0162 52.6887 11.1829C52.6887 9.51619 52.1054 8.13078 50.9387 7.02661C49.7721 5.90161 48.1575 5.33911 46.095 5.33911C44.2616 5.33911 42.7616 5.63078 41.595 6.21411C40.4283 6.77661 39.5637 7.56828 39.0012 8.58911C38.4596 9.60994 38.1887 10.8079 38.1887 12.1829H32.3762C32.3762 10.0579 32.9075 8.12036 33.97 6.37036C35.0533 4.59953 36.6158 3.19328 38.6575 2.15161C40.6991 1.10994 43.1783 0.589111 46.095 0.589111C48.6575 0.589111 50.8658 1.02661 52.72 1.90161C54.5741 2.77661 55.9908 4.00578 56.97 5.58911C57.97 7.15161 58.47 8.96411 58.47 11.0266C58.47 12.1724 58.2616 13.287 57.845 14.3704C57.4491 15.4329 56.8866 16.4849 56.1575 17.5266C55.4491 18.5683 54.6158 19.6204 53.6575 20.6829C52.6991 21.7454 51.6679 22.8599 50.5637 24.0266L40.3137 32.7454H60.2512Z" fill="#333333"/>
</svg>
