<svg width="52" height="38" viewBox="0 0 52 38" fill="none" xmlns="http://www.w3.org/2000/svg">
<path opacity="0.8" d="M27.1438 16.5251V21.9626C27.1438 24.6918 26.8313 27.0668 26.2063 29.0876C25.6021 31.0876 24.7271 32.7543 23.5813 34.0876C22.4563 35.4001 21.0813 36.3793 19.4563 37.0251C17.8521 37.671 16.05 37.9939 14.05 37.9939C12.0709 37.9939 10.2688 37.671 8.64377 37.0251C7.0396 36.3793 5.65418 35.4001 4.48752 34.0876C3.34168 32.7543 2.45627 31.0876 1.83127 29.0876C1.20627 27.0668 0.893768 24.6918 0.893768 21.9626V16.5251C0.893768 13.796 1.19585 11.4314 1.80002 9.4314C2.42502 7.4314 3.31043 5.77515 4.45627 4.46265C5.62293 3.15015 7.00835 2.1814 8.61252 1.5564C10.2167 0.910563 12.0084 0.587646 13.9875 0.587646C15.9875 0.587646 17.8 0.910563 19.425 1.5564C21.05 2.1814 22.4354 3.15015 23.5813 4.46265C24.7271 5.77515 25.6021 7.4314 26.2063 9.4314C26.8313 11.4314 27.1438 13.796 27.1438 16.5251ZM21.3313 22.7751V15.6501C21.3313 13.921 21.175 12.4106 20.8625 11.1189C20.55 9.82723 20.0813 8.75431 19.4563 7.90015C18.8521 7.04598 18.0917 6.41056 17.175 5.9939C16.2584 5.5564 15.1959 5.33765 13.9875 5.33765C12.8209 5.33765 11.7792 5.5564 10.8625 5.9939C9.96668 6.41056 9.20627 7.04598 8.58127 7.90015C7.9771 8.75431 7.50835 9.82723 7.17502 11.1189C6.86252 12.4106 6.70627 13.921 6.70627 15.6501V22.7751C6.70627 24.5043 6.86252 26.0251 7.17502 27.3376C7.50835 28.6501 7.98752 29.7439 8.61252 30.6189C9.23752 31.4939 10.0084 32.1606 10.925 32.6189C11.8417 33.0564 12.8834 33.2751 14.05 33.2751C15.2584 33.2751 16.3104 33.0564 17.2063 32.6189C18.1229 32.1606 18.8834 31.4939 19.4875 30.6189C20.1125 29.7439 20.5709 28.6501 20.8625 27.3376C21.175 26.0251 21.3313 24.5043 21.3313 22.7751ZM51.2375 0.993896V37.4939H45.425V8.02515L35.0813 11.0876V6.15015L50.425 0.993896H51.2375Z" fill="#333333"/>
</svg>
